<svg width="256" height="256" viewBox="0 0 256 256" fill="none" xmlns="http://www.w3.org/2000/svg">
<path d="M160.213 256C133.292 254.591 111.305 246.134 89.881 207.937C107.922 223.864 129.205 229.925 151.616 232.744L154.575 245.711C155.139 247.966 158.522 254.591 160.213 256Z" fill="black"/>
<path d="M207.743 163.915C208.474 164.039 209.216 164.103 209.967 164.103C210.25 164.103 210.532 164.09 210.813 164.072C210.821 164.928 210.825 165.784 210.813 166.64C210.672 176.366 207.994 186.091 204.329 195.111C202.074 201.313 198.128 206.81 194.04 211.884C187.275 220.058 180.51 228.375 171.912 234.718C169.939 236.127 166.415 236.831 164.019 237.113C157.394 238.1 150.911 238.382 144.286 237.959C118.352 236.831 90.5855 224.287 80.1554 199.199C79.7325 198.212 81.1424 197.508 81.7061 198.353C95.237 219.777 120.044 230.348 144.709 231.758C152.32 232.18 160.072 232.039 167.542 230.489C171.207 228.657 174.449 225.415 177.55 222.455C185.161 214.844 192.912 206.668 198.409 197.366C203.94 186.892 207.406 175.633 207.743 163.915ZM72.2628 25.9754C89.3171 16.1094 109.895 13.7132 129.064 15.2635C170.079 18.2234 207.712 37.1108 216.592 80.5223C217.672 84.8436 218.178 89.1937 218.274 93.5545C216.398 92.2604 214.393 91.3912 212.299 91.0184C210.272 75.7761 204.551 60.7367 194.886 48.95C169.375 17.2371 109.049 8.92105 75.0811 30.6268C53.6575 43.8758 43.6501 68.6823 40.4083 92.784C35.4752 121.678 36.8852 150.149 59.8595 171.15L66.6251 178.198C69.3023 181.299 64.5101 184.963 62.255 181.581C59.0133 176.084 54.7854 171.292 50.839 166.218C47.0334 161.003 43.9326 155.223 41.3956 149.304C24.623 108.147 31.1064 50.2182 72.2628 25.9754Z" fill="black"/>
<path d="M68.4572 156.351C65.2155 154.519 62.9603 151.418 62.8194 147.612C62.9603 144.793 63.3832 141.552 62.6784 138.733C62.2556 136.055 59.4367 135.35 57.3225 135.491C55.0673 135.914 53.6579 138.733 53.235 140.988C53.235 141.129 53.0941 141.552 53.0941 141.693C52.9531 142.397 51.8256 142.397 51.5437 141.693C49.7114 136.196 53.7988 130.135 59.7186 130.84C68.0344 131.403 69.162 140.142 67.6116 146.767C66.7659 149.586 67.8935 152.123 69.4439 154.519L69.7258 154.941C70.4305 155.787 69.3029 156.915 68.4572 156.351ZM181.214 121.819C183.329 131.826 187.275 141.129 192.208 149.867C196.578 160.579 185.302 170.727 175.295 170.305C174.167 170.305 174.026 168.754 175.013 168.472C181.355 166.499 187.134 162.271 188.121 155.787C188.544 153.814 187.98 152.123 186.993 150.431C182.342 141.693 179.523 131.685 180.228 121.819C180.228 121.114 181.214 121.114 181.214 121.819Z" fill="black"/>
<path d="M78.1824 136.9C74.9406 128.585 67.8933 120.692 58.4499 120.832C57.6042 120.692 56.1947 120.973 55.3491 120.973C52.953 121.114 50.9797 121.96 49.1474 123.651C40.1268 132.672 41.6773 148.599 49.0065 158.606C51.5435 162.13 54.7853 165.231 58.4499 167.768C62.1145 170.305 66.2019 172.278 70.5713 173.969C71.5579 174.251 71.1351 175.802 70.1484 175.661C60.705 173.687 51.6845 169.036 45.4828 161.284C35.8985 149.726 33.9252 130.417 45.3419 119.141C47.8789 116.886 51.4026 115.195 54.9262 115.195C56.0538 115.195 57.7452 114.913 58.8727 115.195C64.7925 115.477 70.4303 118.436 74.0949 123.088C77.3367 127.034 79.169 131.826 79.7328 136.618C79.7328 137.464 78.4643 137.746 78.1824 136.9Z" fill="black"/>
<path d="M224.344 47.9631C234.351 11.7399 193.758 -10.9525 182.905 5.39729C175.012 17.2368 144.568 8.07527 98.3376 7.22959C52.1072 6.24296 39.7039 30.7676 39.1401 57.1246C39.1401 57.1246 18.8439 67.8365 20.1124 105.61C21.3809 144.793 61.6916 176.365 66.6247 196.239C66.6247 196.239 67.1885 198.776 61.8325 171.573C31.1062 156.774 37.5897 120.269 54.0805 118.154C66.6247 116.604 73.2492 123.933 76.35 129.853C77.6185 131.544 89.599 146.203 89.8809 98.281C90.0218 65.5814 121.876 54.8695 158.099 68.1184C176.986 75.0248 196.859 80.0989 210.531 70.2326C212.786 76.7162 215.182 83.9044 213.35 92.6431C218.847 87.569 223.498 80.0989 224.767 70.9374C225.612 65.4405 224.203 60.6483 221.102 56.4199C222.37 54.0238 223.498 51.0639 224.344 47.9631Z" fill="black"/>
<path d="M189.389 154.378C189.389 154.378 191.081 163.962 202.215 168.754C205.034 169.882 207.994 168.049 207.994 164.949C207.853 164.949 190.094 155.505 189.389 154.378ZM102.284 154.378C102.284 154.378 107.499 166.217 123.144 169.036C138.789 171.996 153.025 160.72 159.649 141.833C159.649 141.833 154.294 159.311 132.87 162.552C111.728 166.076 102.284 154.378 102.284 154.378Z" fill="black"/>
<path d="M182.06 123.369C184.315 105.187 196.154 90.9518 210.108 90.9518C225.189 90.9518 236.747 107.583 235.901 127.88C235.056 148.035 222.37 164.244 207.571 164.244C202.074 164.244 197.141 162.13 193.053 158.324M91.713 124.074H71.6986M162.891 124.074C162.891 124.074 179.664 117.591 181.778 124.074M162.751 128.021C162.329 148.176 146.12 164.385 126.528 164.385C106.937 164.385 91.2916 148.176 91.2916 128.021C91.4325 107.724 107.641 91.0927 127.515 91.0927C147.388 91.0927 163.315 107.724 162.751 128.021Z" stroke="black" stroke-width="3" stroke-miterlimit="10" stroke-linecap="round" stroke-linejoin="round"/>
</svg>
